<svg xmlns="http://www.w3.org/2000/svg" width="24" height="24" viewBox="0 0 24 24">
  <title>Translate_icon_darkblue</title>
  <g>
    <rect x="2" y="2" width="20.133" height="20.133" fill="none" stroke="#f2f2f2" stroke-miterlimit="10" stroke-width="0.1"/>
    <circle cx="12.063" cy="12.066" r="3.005" fill="none" stroke="#f2f2f2" stroke-miterlimit="10" stroke-width="0.1"/>
    <circle cx="12" cy="12.066" r="4.046" fill="none" stroke="#f2f2f2" stroke-miterlimit="10" stroke-width="0.1"/>
    <circle cx="12" cy="12.066" r="5.042" fill="none" stroke="#f2f2f2" stroke-miterlimit="10" stroke-width="0.1"/>
    <line x1="2" y1="22.133" x2="22" y2="2" fill="none" stroke="#f2f2f2" stroke-miterlimit="10" stroke-width="0.1"/>
    <line x1="2" y1="2" x2="22" y2="22" fill="none" stroke="#f2f2f2" stroke-miterlimit="10" stroke-width="0.1"/>
    <ellipse cx="11.993" cy="12.027" rx="8.871" ry="8.806" fill="none" stroke="#f2f2f2" stroke-miterlimit="10" stroke-width="0.2"/>
    <rect x="5" y="2" width="14" height="20" rx="2.094" fill="none" stroke="#f2f2f2" stroke-miterlimit="10" stroke-width="0.2"/>
    <rect x="2" y="5" width="20" height="14" rx="2.179" fill="none" stroke="#f2f2f2" stroke-miterlimit="10" stroke-width="0.2"/>
    <rect x="3" y="3" width="18" height="18" rx="2.179" fill="none" stroke="#f2f2f2" stroke-miterlimit="10" stroke-width="0.2"/>
  </g>
  <g>
    <path d="M21.5,14.546H18.883V13.433a.845.845,0,0,0-1.69,0v1.113H14.532a.845.845,0,1,0,0,1.689h1a.848.848,0,0,0-.4,1.239,13.6,13.6,0,0,0,1.4,1.844,4.3,4.3,0,0,1-2.056.861.844.844,0,1,0,.207,1.676,6.069,6.069,0,0,0,3.091-1.36,11.328,11.328,0,0,0,2.225,1.444.823.823,0,0,0,.37.085.844.844,0,0,0,.371-1.6A9.621,9.621,0,0,1,18.971,19.3a12.322,12.322,0,0,0,1.821-3.064H21.5a.845.845,0,0,0,0-1.689Zm-3.77,3.59a11.814,11.814,0,0,1-1.185-1.568.847.847,0,0,0-.4-.333h2.791A10.5,10.5,0,0,1,17.734,18.136Z" fill="#4d5f7b"/>
    <path d="M4.172,11.289l.674-2.08H7.438l.675,2.08a.5.5,0,0,0,.476.346H9.807a.5.5,0,0,0,.474-.661L7.353,2.292a.5.5,0,0,0-.473-.34H5.457a.5.5,0,0,0-.473.34L2.056,10.974a.5.5,0,0,0,.474.661H3.7A.5.5,0,0,0,4.172,11.289ZM6.791,7.223h-1.3L6.14,5.238Z" fill="#4d5f7b"/>
    <path d="M11.5,6.126l1.146.667a.44.44,0,0,0,.662-.378V6.268a5.566,5.566,0,0,1,4.269,4.939,1,1,0,0,0,1,.993h.007a1,1,0,0,0,.993-1.007,7.506,7.506,0,0,0-6.261-6.97V3.761a.44.44,0,0,0-.658-.383l-1.152.659L10.358,4.7a.44.44,0,0,0,0,.762Z" fill="#4d5f7b"/>
    <path d="M11.966,18.264,10.82,17.6a.441.441,0,0,0-.663.379v.149a5.556,5.556,0,0,1-4.267-4.94,1,1,0,0,0-1-.994h0A1,1,0,0,0,3.89,13.2a7.5,7.5,0,0,0,6.257,6.972l0,.462a.44.44,0,0,0,.659.383l1.153-.66,1.153-.661a.44.44,0,0,0,0-.762Z" fill="#4d5f7b"/>
  </g>
</svg>
